<svg width="113" height="92" viewBox="0 0 113 92" fill="none" xmlns="http://www.w3.org/2000/svg">
<path d="M101.886 49.6224L100.423 59.9369L99.5169 60.9125L91.7811 59.8672H86.2754L86.136 64.1184L90.3175 65.0244C94.0344 65.8142 96.7524 67.1384 98.4715 68.9968C100.237 70.8088 101.12 73.2713 101.12 76.3842C101.12 79.4506 100.307 82.1454 98.6806 84.4685C97.1009 86.7915 94.8708 88.5803 91.9901 89.8348C89.1095 91.1357 85.7643 91.7861 81.9545 91.7861C79.0274 91.7861 76.0307 91.4609 72.9642 90.8104L72.337 81.0536L73.243 80.1476C76.2165 81.0303 79.1901 81.4717 82.1636 81.4717C84.0685 81.4717 85.532 81.1697 86.5542 80.5657C87.6228 79.9617 88.1571 79.0789 88.1571 77.9174C88.1571 76.9882 87.8318 76.268 87.1814 75.757C86.5309 75.1994 85.4856 74.8045 84.0453 74.5722L76.4488 73.3177L75.6822 72.342L76.0307 50.4587L77.3548 49.0649L81.7454 49.3437H92.9658L101.12 48.7861L101.886 49.6224Z" fill="#3F7644"/>
<path d="M66.7682 50.18L66.0713 70.5301L66.6288 85.1654H52.8298L53.3874 71.9239V64.3275L46.8363 65.7213L46 65.0941V54.0827L64.8168 48.7861L66.7682 50.18Z" fill="#3F7644"/>
<mask id="path-3-inside-1_215_8" fill="white">
<path d="M31.2162 32.1014C21.4398 32.2431 11.8329 34.337 3.14281 38.2201C2.19772 38.6526 1.40606 39.2995 0.852496 40.0916C0.298928 40.8837 0.00426168 41.7913 0 42.7173V52.2012C0 53.0126 0.372041 53.7907 1.03428 54.3645C1.69652 54.9382 2.5947 55.2605 3.53125 55.2605C4.4678 55.2605 5.36598 54.9382 6.02822 54.3645C6.69046 53.7907 7.0625 53.0126 7.0625 52.2012V43.3292C15.3655 39.7486 24.5583 37.9939 33.8294 38.2201C32.6164 36.3027 31.7359 34.241 31.2162 32.1014ZM109.857 38.1895C102.063 34.6474 93.4975 32.5629 84.7147 32.0708C84.1975 34.2067 83.3294 36.2672 82.1369 38.1895C90.4108 38.361 98.5386 40.1162 105.938 43.3292V52.2012C105.938 53.0126 106.31 53.7907 106.972 54.3645C107.634 54.9382 108.532 55.2605 109.469 55.2605C110.405 55.2605 111.303 54.9382 111.966 54.3645C112.628 53.7907 113 53.0126 113 52.2012V42.7173C113.002 41.7861 112.711 40.8721 112.157 40.0741C111.603 39.2761 110.808 38.6244 109.857 38.1895ZM30.5806 27.1147V25.065C27.8143 24.7442 25.2973 23.5116 23.5537 21.6235C21.81 19.7355 20.974 17.3376 21.2198 14.929C21.4655 12.5204 22.7739 10.2867 24.8728 8.69286C26.9716 7.09904 29.6991 6.26791 32.4875 6.3725C35.3878 6.36795 38.1754 7.34496 40.2562 9.0953C42.0921 7.7834 44.1085 6.67359 46.2594 5.79123C43.8568 3.39778 40.6734 1.69123 37.1289 0.896517C33.5844 0.101801 29.8452 0.256218 26.404 1.33942C22.9628 2.42262 19.9813 4.38375 17.8523 6.96433C15.7234 9.54492 14.547 12.6238 14.4781 15.7952C14.5522 19.6768 16.2939 23.395 19.3629 26.2235C22.4319 29.0521 26.6078 30.7879 31.075 31.0918C30.7754 29.7813 30.61 28.4505 30.5806 27.1147ZM80.4066 0.253846C77.9799 0.254309 75.5776 0.673909 73.3403 1.48811C71.1029 2.30232 69.0754 3.49479 67.3762 4.9958C69.7635 5.74524 72.021 6.7746 74.0856 8.05513C75.7342 7.06369 77.6624 6.47845 79.6647 6.36182C81.667 6.24518 83.6683 6.60152 85.4552 7.39285C87.2421 8.18417 88.7477 9.38081 89.8113 10.8552C90.8749 12.3295 91.4567 14.0263 91.4947 15.7646C91.4725 17.5502 90.867 19.2937 89.7483 20.7935C88.6297 22.2932 87.0436 23.4878 85.1737 24.239C85.3158 25.1823 85.3866 26.1328 85.3856 27.0841C85.3762 28.3139 85.2581 29.5412 85.0325 30.7553C88.8794 29.8985 92.2915 27.9639 94.7375 25.2527C97.1836 22.5415 98.5265 19.2057 98.5572 15.7646C98.5106 11.6263 96.5755 7.67211 93.1746 4.76585C89.7737 1.8596 85.1835 0.237483 80.4066 0.253846Z"/>
</mask>
<path d="M31.2162 32.1014C21.4398 32.2431 11.8329 34.337 3.14281 38.2201C2.19772 38.6526 1.40606 39.2995 0.852496 40.0916C0.298928 40.8837 0.00426168 41.7913 0 42.7173V52.2012C0 53.0126 0.372041 53.7907 1.03428 54.3645C1.69652 54.9382 2.5947 55.2605 3.53125 55.2605C4.4678 55.2605 5.36598 54.9382 6.02822 54.3645C6.69046 53.7907 7.0625 53.0126 7.0625 52.2012V43.3292C15.3655 39.7486 24.5583 37.9939 33.8294 38.2201C32.6164 36.3027 31.7359 34.241 31.2162 32.1014ZM109.857 38.1895C102.063 34.6474 93.4975 32.5629 84.7147 32.0708C84.1975 34.2067 83.3294 36.2672 82.1369 38.1895C90.4108 38.361 98.5386 40.1162 105.938 43.3292V52.2012C105.938 53.0126 106.31 53.7907 106.972 54.3645C107.634 54.9382 108.532 55.2605 109.469 55.2605C110.405 55.2605 111.303 54.9382 111.966 54.3645C112.628 53.7907 113 53.0126 113 52.2012V42.7173C113.002 41.7861 112.711 40.8721 112.157 40.0741C111.603 39.2761 110.808 38.6244 109.857 38.1895ZM30.5806 27.1147V25.065C27.8143 24.7442 25.2973 23.5116 23.5537 21.6235C21.81 19.7355 20.974 17.3376 21.2198 14.929C21.4655 12.5204 22.7739 10.2867 24.8728 8.69286C26.9716 7.09904 29.6991 6.26791 32.4875 6.3725C35.3878 6.36795 38.1754 7.34496 40.2562 9.0953C42.0921 7.7834 44.1085 6.67359 46.2594 5.79123C43.8568 3.39778 40.6734 1.69123 37.1289 0.896517C33.5844 0.101801 29.8452 0.256218 26.404 1.33942C22.9628 2.42262 19.9813 4.38375 17.8523 6.96433C15.7234 9.54492 14.547 12.6238 14.4781 15.7952C14.5522 19.6768 16.2939 23.395 19.3629 26.2235C22.4319 29.0521 26.6078 30.7879 31.075 31.0918C30.7754 29.7813 30.61 28.4505 30.5806 27.1147ZM80.4066 0.253846C77.9799 0.254309 75.5776 0.673909 73.3403 1.48811C71.1029 2.30232 69.0754 3.49479 67.3762 4.9958C69.7635 5.74524 72.021 6.7746 74.0856 8.05513C75.7342 7.06369 77.6624 6.47845 79.6647 6.36182C81.667 6.24518 83.6683 6.60152 85.4552 7.39285C87.2421 8.18417 88.7477 9.38081 89.8113 10.8552C90.8749 12.3295 91.4567 14.0263 91.4947 15.7646C91.4725 17.5502 90.867 19.2937 89.7483 20.7935C88.6297 22.2932 87.0436 23.4878 85.1737 24.239C85.3158 25.1823 85.3866 26.1328 85.3856 27.0841C85.3762 28.3139 85.2581 29.5412 85.0325 30.7553C88.8794 29.8985 92.2915 27.9639 94.7375 25.2527C97.1836 22.5415 98.5265 19.2057 98.5572 15.7646C98.5106 11.6263 96.5755 7.67211 93.1746 4.76585C89.7737 1.8596 85.1835 0.237483 80.4066 0.253846Z" fill="#3F7644"/>
<path d="M31.2162 32.1014L114.787 11.8046L98.5901 -54.8841L29.9699 -53.8895L31.2162 32.1014ZM3.14281 38.2201L-31.9424 -40.2976L-32.2936 -40.1407L-32.6433 -39.9806L3.14281 38.2201ZM0 42.7173L-85.9991 42.3215L-86 42.5194V42.7173H0ZM0 52.2012H-86H0ZM7.0625 52.2012H93.0625H7.0625ZM7.0625 43.3292L-26.9922 -35.6409L-78.9375 -13.2403V43.3292H7.0625ZM33.8294 38.2201L31.7323 124.195L192.465 128.115L106.507 -7.75801L33.8294 38.2201ZM109.857 38.1895L145.644 -40.011L145.541 -40.0579L145.439 -40.1045L109.857 38.1895ZM84.7147 32.0708L89.5253 -53.7945L17.9918 -57.8022L1.13028 11.8311L84.7147 32.0708ZM82.1369 38.1895L9.05714 -7.14652L-70.4674 121.044L80.354 124.171L82.1369 38.1895ZM105.938 43.3292H191.938V-13.0843L140.192 -35.5544L105.938 43.3292ZM113 42.7173L27.0002 42.5184L27 42.6178V42.7173H113ZM30.5806 27.1147H-55.4194V28.0606L-55.3986 29.0062L30.5806 27.1147ZM30.5806 25.065H116.581V-51.5402L40.4852 -60.3628L30.5806 25.065ZM32.4875 6.3725L29.2641 92.3121L30.9427 92.375L32.6225 92.3724L32.4875 6.3725ZM40.2562 9.0953L-15.1035 74.9079L35.9633 117.864L90.2568 79.0663L40.2562 9.0953ZM46.2594 5.79123L78.9001 85.3562L198.665 36.224L106.954 -55.1362L46.2594 5.79123ZM14.4781 15.7952L-71.5016 13.929L-71.5397 15.6829L-71.5062 17.4368L14.4781 15.7952ZM31.075 31.0918L25.2371 116.893L140.701 124.75L114.913 11.9284L31.075 31.0918ZM80.4066 0.253846L80.423 86.2538L80.5621 86.2538L80.7011 86.2533L80.4066 0.253846ZM67.3762 4.9958L10.4395 -59.4573L-103.747 41.413L41.6176 87.0476L67.3762 4.9958ZM74.0856 8.05513L28.7571 81.1395L73.3949 108.825L118.408 81.754L74.0856 8.05513ZM91.4947 15.7646L177.488 16.8348L177.506 15.3602L177.474 13.8858L91.4947 15.7646ZM85.1737 24.239L53.1168 -55.563L-9.99564 -30.2103L0.132634 37.0456L85.1737 24.239ZM85.3856 27.0841L171.383 27.7453L171.385 27.4585L171.386 27.1716L85.3856 27.0841ZM85.0325 30.7553L0.479959 15.0433L-23.2959 142.991L103.729 114.698L85.0325 30.7553ZM98.5572 15.7646L184.554 16.5311L184.562 15.6636L184.552 14.796L98.5572 15.7646ZM29.9699 -53.8895C8.84931 -53.5834 -12.3032 -49.0733 -31.9424 -40.2976L38.2281 116.738C35.969 117.747 34.0303 118.07 32.4626 118.092L29.9699 -53.8895ZM-32.6433 -39.9806C-46.44 -33.667 -59.6419 -23.4778 -69.64 -9.17109L71.345 89.3543C62.454 102.077 50.8354 110.972 38.929 116.421L-32.6433 -39.9806ZM-69.64 -9.17109C-79.7469 5.29148 -85.9107 23.1169 -85.9991 42.3215L85.9991 43.1131C85.9192 60.4657 80.3448 76.476 71.345 89.3543L-69.64 -9.17109ZM-86 42.7173V52.2012H86V42.7173H-86ZM-86 52.2012C-86 80.1279 -73.0922 103.93 -55.2783 119.364L57.3468 -10.6347C73.8363 3.65101 86 25.8973 86 52.2012H-86ZM-55.2783 119.364C-37.8525 134.461 -16.5463 141.261 3.53125 141.261V-30.7395C21.7357 -30.7395 41.2455 -24.5842 57.3468 -10.6347L-55.2783 119.364ZM3.53125 141.261C23.6088 141.261 44.915 134.461 62.3408 119.364L-50.2843 -10.6347C-34.183 -24.5842 -14.6732 -30.7395 3.53125 -30.7395V141.261ZM62.3408 119.364C80.1547 103.93 93.0625 80.1279 93.0625 52.2012H-78.9375C-78.9375 25.8973 -66.7738 3.65101 -50.2843 -10.6347L62.3408 119.364ZM93.0625 52.2012V43.3292H-78.9375V52.2012H93.0625ZM41.1172 122.299C37.7198 123.764 34.5488 124.263 31.7323 124.195L35.9265 -47.7543C14.5678 -48.2753 -6.98871 -44.2672 -26.9922 -35.6409L41.1172 122.299ZM106.507 -7.75801C110.144 -2.0086 113.03 4.57188 114.787 11.8046L-52.3543 52.3983C-49.5584 63.9102 -44.9113 74.614 -38.8481 84.1982L106.507 -7.75801ZM145.439 -40.1045C127.677 -48.1766 108.647 -52.7232 89.5253 -53.7945L79.9041 117.936C78.3478 117.849 76.4494 117.471 74.2756 116.483L145.439 -40.1045ZM1.13028 11.8311C2.82382 4.83725 5.58171 -1.54426 9.05714 -7.14652L155.217 83.5255C161.077 74.0787 165.571 63.5761 168.299 52.3106L1.13028 11.8311ZM80.354 124.171C77.7421 124.117 74.8119 123.572 71.6827 122.213L140.192 -35.5544C122.265 -43.3391 103.08 -47.3947 83.9197 -47.792L80.354 124.171ZM19.9375 43.3292V52.2012H191.938V43.3292H19.9375ZM19.9375 52.2012C19.9375 80.1276 32.8451 103.93 50.6592 119.364L163.284 -10.6347C179.774 3.65118 191.938 25.8975 191.938 52.2012H19.9375ZM50.6592 119.364C68.085 134.461 89.3913 141.261 109.469 141.261V-30.7395C127.673 -30.7395 147.183 -24.5843 163.284 -10.6347L50.6592 119.364ZM109.469 141.261C129.546 141.261 150.852 134.461 168.278 119.364L55.6532 -10.6347C71.7545 -24.5843 91.2644 -30.7395 109.469 -30.7395V141.261ZM168.278 119.364C186.092 103.93 199 80.1276 199 52.2012H27C27 25.8975 39.1635 3.65118 55.6532 -10.6347L168.278 119.364ZM199 52.2012V42.7173H27V52.2012H199ZM199 42.9162C199.044 23.5984 192.933 5.62616 182.805 -8.9642L41.5079 89.1124C32.4883 76.1181 26.9598 59.9738 27.0002 42.5184L199 42.9162ZM182.805 -8.9642C172.789 -23.3941 159.517 -33.6624 145.644 -40.011L74.0705 116.39C62.0984 110.911 50.4161 101.946 41.5079 89.1124L182.805 -8.9642ZM116.581 27.1147V25.065H-55.4194V27.1147H116.581ZM40.4852 -60.3628C56.3014 -58.529 73.3178 -51.2495 86.7326 -36.7239L-39.6252 79.971C-22.7232 98.2726 -0.672815 108.018 20.676 110.493L40.4852 -60.3628ZM86.7326 -36.7239C100.554 -21.7577 109.202 -0.125689 106.776 23.6568L-64.3362 6.20117C-67.2538 34.8009 -56.9343 61.2286 -39.6252 79.971L86.7326 -36.7239ZM106.776 23.6568C104.374 47.1977 91.8916 65.786 76.883 77.1833L-27.1374 -59.7976C-46.3438 -45.2127 -61.4433 -22.1569 -64.3362 6.20117L106.776 23.6568ZM76.883 77.1833C62.1661 88.359 45.0904 92.9057 29.2641 92.3121L35.7109 -79.5671C14.3079 -80.3698 -8.2228 -74.1609 -27.1374 -59.7976L76.883 77.1833ZM32.6225 92.3724C16.6836 92.3974 -0.5653 87.137 -15.1035 74.9079L95.616 -56.7173C76.9161 -72.4471 54.0919 -79.6615 32.3525 -79.6274L32.6225 92.3724ZM90.2568 79.0663C86.5339 81.7267 82.7001 83.7973 78.9001 85.3562L13.6186 -73.7737C5.517 -70.4501 -2.34966 -66.1599 -9.74431 -60.8757L90.2568 79.0663ZM106.954 -55.1362C92.2179 -69.8161 74.1634 -78.9351 55.944 -83.0201L18.3138 84.8131C7.18342 82.3175 -4.50443 76.6116 -14.4353 66.7187L106.954 -55.1362ZM55.944 -83.0201C37.7216 -87.1057 18.581 -86.3581 0.58227 -80.6925L52.2257 83.3713C41.1093 86.8705 29.4473 87.3093 18.3138 84.8131L55.944 -83.0201ZM0.58227 -80.6925C-17.4217 -75.0253 -34.941 -64.1826 -48.4861 -47.7642L84.1908 61.6929C74.9036 72.9501 63.3474 79.8705 52.2257 83.3713L0.58227 -80.6925ZM-48.4861 -47.7642C-62.1954 -31.1466 -70.9893 -9.67462 -71.5016 13.929L100.458 17.6614C100.083 34.9223 93.6422 50.2364 84.1908 61.6929L-48.4861 -47.7642ZM-71.5062 17.4368C-70.9483 46.6593 -57.7949 72.0658 -38.9207 89.4614L77.6465 -37.0143C90.3827 -25.2759 100.053 -7.30575 100.462 14.1536L-71.5062 17.4368ZM-38.9207 89.4614C-20.3643 106.564 2.75343 115.364 25.2371 116.893L36.9129 -54.7098C50.4623 -53.7879 65.2281 -48.4598 77.6465 -37.0143L-38.9207 89.4614ZM114.913 11.9284C115.901 16.2527 116.46 20.7079 116.56 25.2233L-55.3986 29.0062C-55.2405 36.193 -54.3503 43.31 -52.7627 50.2553L114.913 11.9284ZM80.3902 -85.7462C68.1348 -85.7438 55.7713 -83.636 43.9303 -79.3268L102.75 82.3031C95.3839 84.9838 87.8249 86.2524 80.423 86.2538L80.3902 -85.7462ZM43.9303 -79.3268C32.0884 -75.0174 20.6094 -68.4412 10.4395 -59.4573L124.313 69.4489C117.541 75.4308 110.117 79.622 102.75 82.3031L43.9303 -79.3268ZM41.6176 87.0476C37.3382 85.7041 32.9956 83.7683 28.7571 81.1395L119.414 -65.0293C111.046 -70.2191 102.189 -74.2136 93.1349 -77.056L41.6176 87.0476ZM118.408 81.754C107.612 88.247 95.9487 91.5591 84.6657 92.2163L74.6637 -79.4927C59.3761 -78.6021 43.8568 -74.1196 29.7632 -65.6438L118.408 81.754ZM84.6657 92.2163C73.3806 92.8736 61.6935 90.9256 50.6324 86.0273L120.278 -71.2416C105.643 -77.7226 89.9534 -80.3833 74.6637 -79.4927L84.6657 92.2163ZM50.6324 86.0273C39.5555 81.1219 28.5938 72.9912 20.0659 61.17L159.557 -39.4596C148.902 -54.2296 134.929 -64.7536 120.278 -71.2416L50.6324 86.0273ZM20.0659 61.17C11.4295 49.1984 5.8758 34.1448 5.51521 17.6435L177.474 13.8858C177.038 -6.09218 170.32 -24.5393 159.557 -39.4596L20.0659 61.17ZM5.50135 14.6945C5.71641 -2.58671 11.624 -18.3061 20.8126 -30.6251L158.684 72.2121C170.11 56.8936 177.229 37.687 177.488 16.8348L5.50135 14.6945ZM20.8126 -30.6251C29.8731 -42.7723 41.4919 -50.8932 53.1168 -55.563L117.231 104.041C132.595 97.8688 147.386 87.3587 158.684 72.2121L20.8126 -30.6251ZM0.132634 37.0456C-0.366258 33.7327 -0.617771 30.373 -0.614337 26.9967L171.386 27.1716C171.391 21.8925 170.998 16.632 170.215 11.4324L0.132634 37.0456ZM-0.61184 26.423C-0.582312 22.5822 -0.213193 18.7734 0.479959 15.0433L169.585 46.4674C170.729 40.309 171.335 34.0455 171.383 27.7453L-0.61184 26.423ZM103.729 114.698C123.539 110.286 143.227 99.8901 158.591 82.8614L30.8843 -32.356C41.3555 -43.9623 54.2193 -50.489 66.336 -53.1877L103.729 114.698ZM158.591 82.8614C174.178 65.5847 184.324 42.348 184.554 16.5311L12.5606 14.9981C12.7294 -3.93661 20.1893 -20.5018 30.8843 -32.356L158.591 82.8614ZM184.552 14.796C184.201 -16.3326 169.586 -43.0603 149.045 -60.6136L37.304 70.1453C23.5649 58.4045 12.82 39.5852 12.5626 16.7332L184.552 14.796ZM149.045 -60.6136C128.881 -77.845 103.962 -85.8273 80.112 -85.7457L80.7011 86.2533C66.4045 86.3023 50.6663 81.5642 37.304 70.1453L149.045 -60.6136Z" fill="#3F7644" mask="url(#path-3-inside-1_215_8)"/>
<path d="M58.6998 13.167L58.6903 13.167L58.6808 13.1671C55.7718 13.2085 52.9233 14.0027 50.4917 15.4727C48.0588 16.9435 46.1332 19.0384 44.9994 21.5255C43.8632 24.0177 43.5865 26.7665 44.218 29.4127C44.8486 32.0552 46.3453 34.4345 48.4714 36.2707C50.5951 38.1047 53.2599 39.324 56.1211 39.8079C58.9823 40.2917 61.9451 40.0244 64.6461 39.0315C67.3475 38.0385 69.6946 36.3527 71.3655 34.149C73.0395 31.9413 73.9542 29.3168 73.9546 26.6057V26.5934L73.9545 26.5811C73.9097 22.907 72.2082 19.461 69.3285 16.9741C66.4569 14.4942 62.6326 13.1483 58.6998 13.167ZM24.0027 59.4989V59.4651L24.0016 59.4313C23.982 58.8521 24.1423 58.2611 24.4936 57.7189C24.8435 57.1791 25.3764 56.7002 26.0622 56.3614C30.4652 54.3636 35.0716 52.7884 39.8022 51.6476V54.0854C35.8426 55.0977 31.9724 56.4278 28.2421 58.0704L27.0481 58.5961V59.9008V70.5046C27.0481 70.7035 26.9603 70.9564 26.6972 71.1874C26.4256 71.4257 26.0075 71.5961 25.5254 71.5961C25.0434 71.5961 24.6253 71.4257 24.3537 71.1874C24.0906 70.9564 24.0027 70.7035 24.0027 70.5046V59.4989ZM58.7215 42.227C55.1026 42.1924 51.594 41.2188 48.6386 39.451C45.6828 37.6831 43.4316 35.213 42.1257 32.3833C40.8221 29.5587 40.5053 26.4768 41.2004 23.5119C41.8964 20.5431 43.587 17.7807 46.1083 15.5911C48.6321 13.3994 51.8675 11.8886 55.4175 11.2816C58.9675 10.6746 62.6404 11.0045 65.965 12.2219C69.2892 13.4391 72.0884 15.4778 74.0373 18.0445C75.9813 20.6048 76.9981 23.5805 77 26.5978C76.9652 30.6712 75.095 34.6295 71.6917 37.5851C68.2793 40.5486 63.6186 42.2406 58.7215 42.227Z" fill="#3F7644" stroke="#3F7644" stroke-width="4"/>
</svg>
