<svg width="106" height="82" viewBox="0 0 106 82" fill="none" xmlns="http://www.w3.org/2000/svg">
<path d="M74.1693 36.7862C77.2646 36.7862 79.6704 37.8129 81.3866 39.8662C83.1335 41.8889 84.0069 44.7544 84.0069 48.4626C84.0069 52.5693 83.0415 55.7566 81.1108 58.0245C79.18 60.2923 76.4831 61.4263 73.02 61.4263C69.8941 61.4263 67.4576 60.3996 65.7108 58.3462C63.9639 56.2929 63.0904 53.4121 63.0904 49.7038C63.0904 45.6585 64.0558 42.5018 65.9866 40.234C67.948 37.9354 70.6755 36.7862 74.1693 36.7862ZM73.4797 45.1528C72.2232 45.1528 71.3345 45.4439 70.8135 46.0262C70.2925 46.6085 70.0319 47.6352 70.0319 49.1062C70.0319 50.6999 70.2925 51.8491 70.8135 52.554C71.3345 53.2282 72.2385 53.5653 73.5257 53.5653C74.8129 53.5653 75.7323 53.2589 76.2839 52.6459C76.8355 52.0023 77.1114 50.9604 77.1114 49.52C77.1114 47.9263 76.8202 46.8077 76.2379 46.1641C75.6863 45.4899 74.7669 45.1528 73.4797 45.1528Z" fill="#3F7644"/>
<path d="M50.6005 36.7862C53.6959 36.7862 56.1016 37.8129 57.8179 39.8662C59.5647 41.8889 60.4382 44.7544 60.4382 48.4626C60.4382 52.5693 59.4728 55.7566 57.5421 58.0245C55.6113 60.2923 52.9144 61.4263 49.4513 61.4263C46.3253 61.4263 43.8889 60.3996 42.142 58.3462C40.3951 56.2929 39.5217 53.4121 39.5217 49.7038C39.5217 45.6585 40.4871 42.5018 42.4178 40.234C44.3792 37.9354 47.1068 36.7862 50.6005 36.7862ZM49.911 45.1528C48.6545 45.1528 47.7657 45.4439 47.2447 46.0262C46.7237 46.6085 46.4632 47.6352 46.4632 49.1062C46.4632 50.6999 46.7237 51.8491 47.2447 52.554C47.7657 53.2282 48.6698 53.5653 49.957 53.5653C51.2441 53.5653 52.1635 53.2589 52.7152 52.6459C53.2668 52.0023 53.5426 50.9604 53.5426 49.52C53.5426 47.9263 53.2515 46.8077 52.6692 46.1641C52.1176 45.4899 51.1981 45.1528 49.911 45.1528Z" fill="#3F7644"/>
<path d="M34.6991 37.7975L34.2394 51.2208L34.6072 60.8746H25.5051L25.8728 52.1402V47.1295L21.5516 48.0489L21 47.6352V40.3719L33.412 36.8781L34.6991 37.7975Z" fill="#3F7644"/>
<path d="M68.9 0.76123C70.3056 0.76123 71.6537 1.23211 72.6477 2.07027C73.6416 2.90844 74.2 4.04524 74.2 5.23059V14.1693H100.7C102.106 14.1693 103.454 14.6402 104.448 15.4783C105.442 16.3165 106 17.4533 106 18.6387V76.7403C106 77.9256 105.442 79.0624 104.448 79.9006C103.454 80.7388 102.106 81.2096 100.7 81.2096H5.3C3.89435 81.2096 2.54628 80.7388 1.55233 79.9006C0.558391 79.0624 0 77.9256 0 76.7403V18.6387C0 17.4533 0.558391 16.3165 1.55233 15.4783C2.54628 14.6402 3.89435 14.1693 5.3 14.1693H31.8V5.23059C31.8 4.04524 32.3584 2.90844 33.3523 2.07027C34.3463 1.23211 35.6944 0.76123 37.1 0.76123H68.9ZM10.6 23.108V72.2709H95.4V23.108H10.6ZM63.6 9.69994H42.4V14.1693H63.6V9.69994Z" fill="#3F7644"/>
<path d="M86.73 26.1462V30.6162H91.17L91.53 31.0062L91.26 34.5162H86.73V39.0762L83.22 39.3462L82.83 38.9862V34.5162H78.36L78 34.1262L78.27 30.6162H82.83V26.0562L86.34 25.7862L86.73 26.1462Z" fill="#3F7644"/>
</svg>
