<svg width="98" height="77" viewBox="0 0 98 77" fill="none" xmlns="http://www.w3.org/2000/svg">
<path d="M66.281 33.7042C68.1184 33.7042 69.6885 34.1305 70.9913 34.9829C72.2941 35.8026 73.2796 36.9009 73.9477 38.278C74.6493 39.6223 75 41.0649 75 42.6059C75 44.3108 74.5657 45.9501 73.6972 47.5239C72.862 49.0649 71.5592 50.3272 69.7887 51.3108C68.0516 52.2944 65.9136 52.7862 63.3747 52.7862C59.8337 52.7862 57.0443 51.7698 55.0065 49.737C53.0022 47.6714 52 44.8846 52 41.3764C52 37.6059 53.236 34.1141 55.7081 30.9009C58.2135 27.655 61.7378 24.9501 66.281 22.7862H66.732L72.9455 27.0157V27.9501C70.106 29.0649 67.8845 30.0813 66.281 30.9993C64.711 31.8846 63.5251 32.8682 62.7233 33.9501L62.9238 34.196C64.093 33.8682 65.2121 33.7042 66.281 33.7042ZM63.6253 46.6387C65.329 46.6387 66.1808 45.6059 66.1808 43.5403C66.1808 42.4583 65.947 41.655 65.4793 41.1305C65.045 40.6059 64.3268 40.3436 63.3246 40.3436C62.5897 40.3436 61.7713 40.4911 60.8693 40.7862V41.2288C60.8693 43.1632 61.0363 44.5567 61.3704 45.4091C61.7044 46.2288 62.4561 46.6387 63.6253 46.6387Z" fill="#3F7644"/>
<path d="M39.7578 26.7862C42.5082 26.7862 44.7601 27.3749 46.5135 28.5522C48.2668 29.6969 49.1435 31.3158 49.1435 33.4088C49.1435 34.7497 48.7137 36.1724 47.8543 37.6768C47.0291 39.1485 45.6196 40.8327 43.6255 42.7296L41.3565 44.8881L41.5112 45.1334H45.4821L50.4843 44.6428L51 45.2315L49.8655 52.7862L42.4395 52.3937H30.5785L28.722 52.5409L28.2579 52.1975V46.4088L34.8587 41.0126C36.2683 39.8025 37.3169 38.8051 38.0045 38.0202C38.7265 37.2353 39.0874 36.5648 39.0874 36.0088C39.0874 35.2566 38.4858 34.8805 37.2825 34.8805C36.3543 34.8805 35.3057 35.1095 34.1368 35.5673C32.9679 35.9925 31.8505 36.5812 30.7848 37.3334H29.7018L28 29.8768C32.2631 27.8164 36.1824 26.7862 39.7578 26.7862Z" fill="#3F7644"/>
<path d="M34.3333 5.85809L5 22.1992V71.2224L34.3333 58.9666L63.6667 71.2224L93 54.8813V5.85809L63.6667 18.1139L34.3333 5.85809Z" stroke="#3F7644" stroke-width="10" stroke-linecap="round" stroke-linejoin="round"/>
</svg>
