<svg width="129" height="86" viewBox="0 0 129 86" fill="none" xmlns="http://www.w3.org/2000/svg">
<path d="M31.1182 0C26.3612 1.2854 22.6392 2.69685 18.053 5.517C17.4583 5.99271 16.8754 6.47861 16.3046 6.97439C16.3698 7.10316 16.4702 7.26219 16.6187 7.48628C16.8946 7.90307 17.3699 8.40153 17.968 8.89454C17.0514 10.1274 16.1911 11.389 15.3889 12.6766C14.3942 11.985 13.5015 11.2153 12.7843 10.3515C10.7044 12.5243 8.84822 14.841 7.23569 17.2767C7.34293 17.6489 7.65839 18.0548 8.2619 18.5985C8.98296 19.2476 10.1094 19.9181 11.4182 20.49C10.8687 21.8817 10.3974 23.2665 10.0103 24.6488C7.99042 23.8798 6.14297 22.8815 4.6908 21.6132C3.05361 24.8041 1.83333 28.1342 1.05128 31.5452C1.41371 32.0989 2.05957 32.606 3.03637 33.145C4.41334 33.9049 6.39192 34.5273 8.54262 34.887C8.5304 36.3514 8.61049 37.8041 8.76306 39.2378C5.66624 38.8572 2.68045 38.0438 0.245239 36.6997C0.231665 36.692 0.216462 36.6861 0.202887 36.6784C-0.144847 40.1585 -0.0453653 43.6599 0.49962 47.1222C1.12675 47.9139 2.17631 48.4775 3.74033 48.9281C5.75094 49.5074 8.4837 49.6889 11.2659 49.4541C11.8088 50.8469 12.4265 52.2138 13.1147 53.5492C9.32205 54.0265 5.44878 53.9182 2.09432 52.952C2.00283 52.9256 1.91378 52.8947 1.82284 52.8667C2.89661 56.3656 4.43028 59.7539 6.39572 62.9693C7.3603 63.6072 8.66261 63.9285 10.392 64.0286C12.9168 64.1751 16.1322 63.635 19.1984 62.5855C20.2037 63.7786 21.2679 64.9361 22.3883 66.055C18.4328 67.5826 14.1461 68.4836 10.1544 68.2731C12.8567 71.5989 16.0334 74.6358 19.614 77.3165C20.7705 77.6454 22.1388 77.6497 23.7878 77.3801C26.3941 76.954 29.4496 75.6957 32.212 73.9676C32.2142 73.9687 32.219 73.9664 32.2207 73.9676C33.6163 74.8714 35.057 75.7254 36.5389 76.527C33.2876 78.7816 29.5821 80.5529 25.8071 81.3547C28.9965 83.1633 32.3925 84.7016 35.9452 85.9471C37.2855 86.0433 38.7387 85.7287 40.3823 85.0584C42.4651 84.2087 44.6663 82.7261 46.6346 80.8997C51.2596 82.4428 56.0638 83.4523 60.9046 83.8356L61.3879 79.5983C57.5143 79.2912 53.6278 78.5131 49.833 77.3374C51.7016 74.8103 52.9849 72.0654 53.346 69.7303C53.6658 67.6568 53.3685 66.0545 52.3192 64.853C50.1256 64.4936 48.0053 63.9567 45.9733 63.2605C45.9266 64.7325 45.5101 66.2151 44.8276 67.6045C43.8109 69.6755 42.2431 71.6536 40.34 73.4559C38.8809 72.7036 37.4626 71.897 36.0893 71.0387C37.8865 69.4047 39.3262 67.6329 40.1361 65.9835C41.1693 63.88 41.269 62.2119 40.3057 60.7941C38.2023 59.6664 36.2327 58.3514 34.4097 56.8765C33.9283 57.8548 33.2729 58.7807 32.5006 59.6279C31.0139 61.258 29.0875 62.7015 26.918 63.9289C25.7995 62.8551 24.732 61.7442 23.7281 60.5873C25.6698 59.5194 27.3378 58.2895 28.4709 57.0469C29.8387 55.5467 30.431 54.2236 30.2269 52.9304C28.8604 51.4193 27.6351 49.822 26.5619 48.1528C25.9407 48.7651 25.2439 49.3205 24.4831 49.8097C22.6484 50.9871 20.4657 51.8925 18.1287 52.5466C17.4242 51.2521 16.783 49.9308 16.2283 48.5796C18.2447 48.0325 20.0644 47.2867 21.3947 46.4326C22.9411 45.4403 23.7843 44.4886 23.9825 43.4182C23.1502 41.5724 22.4783 39.6785 21.9719 37.7515C21.4649 37.9962 20.9376 38.2101 20.394 38.3915C18.3714 39.0619 16.1181 39.4002 13.8024 39.4721C13.6192 38.0576 13.5255 36.636 13.5219 35.2132C15.4106 35.1534 17.1772 34.8863 18.5281 34.4386C19.7769 34.0245 20.59 33.5741 21.0646 33.0167C20.7812 30.764 20.7075 28.4963 20.8438 26.2341C20.6674 26.2577 20.4936 26.275 20.3177 26.2909C18.5194 26.4559 16.6375 26.3251 14.7778 25.9854C15.1497 24.6249 15.6113 23.2531 16.1607 21.876C17.4829 22.0882 18.7502 22.1542 19.7661 22.0612C20.4757 21.9961 20.9964 21.8892 21.395 21.7413C21.7679 19.7376 22.3095 17.7585 23.0157 15.8189C21.8804 15.6514 20.7667 15.3429 19.69 14.9373C20.4766 13.6657 21.3229 12.4207 22.2268 11.2051C22.8822 11.4242 23.5071 11.5839 24.0422 11.6533C24.3427 11.6919 24.5914 11.7136 24.7975 11.717C25.3258 10.6613 25.8894 9.63074 26.5029 8.63131C28.1042 5.9463 29.8734 3.11386 31.1182 0ZM97.4622 0C98.7064 3.11363 100.476 5.94585 102.077 8.63109C102.696 9.64042 103.268 10.6697 103.79 11.7165C103.995 11.7129 104.241 11.6908 104.537 11.6528C105.075 11.5832 105.703 11.4253 106.361 11.2046C107.265 12.4203 108.112 13.6654 108.898 14.9371C107.819 15.3434 106.7 15.6514 105.564 15.8189C106.26 17.7276 106.806 19.7092 107.184 21.7408C107.584 21.8905 108.108 21.9956 108.822 22.0612C109.838 22.1544 111.105 22.0885 112.427 21.8762C112.965 23.2289 113.424 24.6028 113.802 25.9929C111.946 26.3312 110.066 26.4561 108.271 26.2916C108.092 26.2763 107.914 26.2573 107.737 26.2347C107.876 28.4967 107.805 30.7644 107.524 33.0171C107.999 33.5745 108.812 34.025 110.061 34.439C111.41 34.8861 113.173 35.1534 115.058 35.2139C115.055 36.6367 114.961 38.0583 114.779 39.4728C112.465 39.4 110.215 39.0615 108.195 38.3922C107.652 38.21 107.124 37.9961 106.617 37.752C106.11 39.6764 105.438 41.5678 104.606 43.4111C104.8 44.485 105.637 45.4387 107.185 46.4329C108.517 47.2867 110.336 48.0322 112.353 48.5796C111.798 49.931 111.157 51.2521 110.452 52.5468C108.118 51.8928 105.939 50.9857 104.106 49.81C103.342 49.3211 102.643 48.7657 102.019 48.153C100.93 49.8416 99.706 51.4391 98.354 52.9306C98.1477 54.2233 98.7422 55.5474 100.111 57.0473C101.242 58.2888 102.91 59.5203 104.853 60.588C103.849 61.7449 102.781 62.8553 101.663 63.9294C99.4934 62.7018 97.567 61.2585 96.0803 59.6282C95.3098 58.783 94.6594 57.8586 94.1799 56.8835C92.3583 58.3573 90.3857 59.6673 88.2833 60.7939C87.3203 62.2119 87.42 63.88 88.4532 65.9837C89.2636 67.6332 90.7033 69.4047 92.5005 71.0389C91.1245 71.8974 89.7034 72.7038 88.2415 73.4559C86.3403 71.6536 84.779 69.6755 83.762 67.6045C83.0797 66.2153 82.6633 64.7327 82.6163 63.261C80.5652 63.9638 78.4371 64.4972 76.2622 64.8535C75.2108 66.0547 74.9157 67.6573 75.236 69.7305C75.5963 72.0656 76.8866 74.8107 78.7564 77.3378C74.9626 78.5136 71.0752 79.2914 67.2014 79.5986L67.6765 83.8358C72.5198 83.452 77.3267 82.4444 81.955 80.8997C83.9232 82.7261 86.1244 84.2087 88.2073 85.0584C89.8514 85.7289 91.3044 86.0435 92.6447 85.9471C96.1972 84.7015 99.5932 83.1631 102.782 81.3544C99.0099 80.5536 95.2998 78.7852 92.0507 76.5336C93.5281 75.7364 94.9664 74.8744 96.3689 73.9674C99.1326 75.6973 102.194 76.9536 104.802 77.3799C106.446 77.6488 107.813 77.6495 108.967 77.3231C112.551 74.6406 115.731 71.6014 118.435 68.2729C114.443 68.4833 110.148 67.5824 106.193 66.0547C107.311 64.937 108.383 63.7819 109.391 62.5853C112.457 63.6341 115.673 64.1746 118.198 64.0281C119.927 63.928 121.229 63.6068 122.193 62.9688C124.159 59.7534 125.692 56.3651 126.766 52.8663C126.675 52.8942 126.586 52.9254 126.495 52.9516C123.141 53.9178 119.267 54.0261 115.474 53.5488C116.165 52.2083 116.783 50.8418 117.324 49.4537C120.103 49.6873 122.832 49.506 124.841 48.9275C126.406 48.477 127.46 47.9139 128.09 47.1218C128.632 43.6592 128.729 40.1578 128.379 36.6779C128.367 36.6843 128.356 36.6927 128.345 36.6993C125.909 38.0434 122.923 38.8567 119.827 39.2373C119.979 37.8036 120.059 36.351 120.047 34.8863C122.197 34.5264 124.176 33.9042 125.553 33.1443C126.528 32.606 127.167 32.0969 127.53 31.5445C126.747 28.1336 125.527 24.8037 123.89 21.6128C122.438 22.88 120.596 23.8787 118.579 24.6486C118.184 23.2453 117.714 21.8575 117.171 20.4893C118.475 19.9176 119.598 19.2462 120.318 18.5981C120.919 18.0575 121.242 17.6539 121.353 17.2831C119.741 14.845 117.885 12.526 115.804 10.351C115.087 11.2146 114.194 11.9845 113.2 12.6761C112.398 11.3885 111.537 10.1267 110.621 8.89363C111.22 8.40085 111.694 7.90171 111.97 7.48537C112.116 7.26469 112.22 7.10862 112.284 6.98076C111.71 6.48258 111.125 5.99433 110.528 5.51632C105.941 2.69616 102.219 1.2854 97.4622 0Z" fill="#3F7644"/>
<path d="M96 17.3026L94.5141 26.0989L93.5943 26.931L85.7406 26.0395H80.1509L80.0094 29.665L84.2547 30.4376C88.0283 31.1112 90.7877 32.2405 92.533 33.8254C94.3255 35.3707 95.2217 37.4707 95.2217 40.1255C95.2217 42.7406 94.3962 45.0388 92.7453 47.0199C91.1415 49.0011 88.8774 50.5266 85.9528 51.5964C83.0283 52.7058 79.6321 53.2606 75.7641 53.2606C72.7925 53.2606 69.75 52.9832 66.6368 52.4285L66 44.1076L66.9198 43.335C69.9387 44.0878 72.9575 44.4642 75.9764 44.4642C77.9104 44.4642 79.3962 44.2067 80.434 43.6916C81.5189 43.1765 82.0613 42.4236 82.0613 41.4331C82.0613 40.6406 81.7311 40.0264 81.0708 39.5906C80.4104 39.1151 79.3491 38.7783 77.8868 38.5802L70.1745 37.5104L69.3962 36.6783L69.75 18.0158L71.0943 16.8271L75.5519 17.0648H86.9434L95.2217 16.5894L96 17.3026Z" fill="#3F7644"/>
<path d="M48.8475 16.5894C52.5546 16.5894 55.5897 17.301 57.9529 18.7244C60.3161 20.1082 61.4978 22.0653 61.4978 24.5957C61.4978 26.2168 60.9185 27.9367 59.7601 29.7554C58.648 31.5346 56.7481 33.5708 54.0605 35.864L51.0022 38.4735L51.2108 38.77H56.5628L63.3049 38.1769L64 38.8886L62.4709 48.0218L52.4619 47.5474H36.4753L33.9731 47.7253L33.3475 47.3101V40.312L42.2444 33.7882C44.1442 32.3254 45.5575 31.1195 46.4843 30.1705C47.4574 29.2216 47.9439 28.4111 47.9439 27.739C47.9439 26.8296 47.133 26.3749 45.5112 26.3749C44.2601 26.3749 42.8468 26.6517 41.2713 27.2052C39.6958 27.7192 38.1898 28.4309 36.7534 29.3403H35.2937L33 20.3257C38.7459 17.8348 44.0284 16.5894 48.8475 16.5894Z" fill="#3F7644"/>
</svg>
