<svg width="48" height="48" viewBox="0 0 48 48" fill="none" xmlns="http://www.w3.org/2000/svg">
<g clip-path="url(#clip0_325_12)">
<path d="M7.32692 41.2629C5.03467 39.049 3.2063 36.4007 1.94848 33.4726C0.690667 30.5445 0.0285978 27.3953 0.000906162 24.2085C-0.0267854 21.0218 0.580455 17.8615 1.7872 14.912C2.99394 11.9625 4.77601 9.28286 7.02944 7.02944C9.28286 4.77601 11.9625 2.99394 14.912 1.7872C17.8615 0.580455 21.0218 -0.0267854 24.2085 0.000906162C27.3953 0.0285978 30.5445 0.690667 33.4726 1.94848C36.4007 3.2063 39.049 5.03467 41.2629 7.32692C45.6347 11.8534 48.0538 17.9158 47.9991 24.2085C47.9444 30.5013 45.4204 36.5208 40.9706 40.9706C36.5208 45.4204 30.5013 47.9444 24.2085 47.9991C17.9158 48.0538 11.8534 45.6347 7.32692 41.2629ZM37.8789 37.8789C41.4816 34.2762 43.5056 29.3899 43.5056 24.2949C43.5056 19.1999 41.4816 14.3136 37.8789 10.7109C34.2762 7.10822 29.3899 5.08424 24.2949 5.08424C19.1999 5.08424 14.3136 7.10822 10.7109 10.7109C7.10822 14.3136 5.08424 19.1999 5.08424 24.2949C5.08424 29.3899 7.10822 34.2762 10.7109 37.8789C14.3136 41.4816 19.1999 43.5056 24.2949 43.5056C29.3899 43.5056 34.2762 41.4816 37.8789 37.8789ZM21.8949 12.2949H26.6949V26.6949H21.8949V12.2949ZM21.8949 31.4949H26.6949V36.2949H21.8949V31.4949Z" fill="white"/>
</g>
<defs>
<clipPath id="clip0_325_12">
<rect width="48" height="48" fill="white"/>
</clipPath>
</defs>
</svg>
