<svg width="30" height="27" viewBox="0 0 30 27" fill="none" xmlns="http://www.w3.org/2000/svg">
<path d="M23.687 26.1631C23.285 26.1631 22.844 26.0311 22.367 25.7681L11.564 17.7921C11.443 17.7031 11.369 17.5641 11.361 17.4141C11.354 17.2641 11.414 17.1191 11.526 17.0181L24.322 5.5031C24.527 5.3181 24.843 5.3341 25.028 5.5401C25.213 5.7451 25.196 6.0611 24.991 6.2461L12.651 17.3521L22.905 24.9281C23.176 25.0731 23.634 25.2571 23.96 25.1061C24.292 24.9541 24.456 24.4691 24.536 24.0891L28.911 3.4721C29.081 2.7911 28.999 2.2431 28.696 1.9911C28.465 1.7991 28.121 1.7851 27.749 1.9531L2.03299 11.8711C1.24399 12.1881 0.995992 12.5141 0.999992 12.6221C1.00299 12.6931 1.17299 12.8891 1.67999 13.0441L8.05499 15.0341L15.054 10.6181C15.288 10.4721 15.596 10.5411 15.743 10.7741C15.89 11.0071 15.821 11.3161 15.587 11.4631L8.39299 16.0021C8.26899 16.0801 8.11599 16.1001 7.97699 16.0571L1.38499 13.9991C0.214992 13.6411 0.0149925 13.0091 0.000992454 12.6641C-0.0190075 12.1911 0.253992 11.5071 1.66799 10.9411L27.363 1.0331C28.06 0.715096 28.808 0.783096 29.337 1.2241C29.95 1.7351 30.15 2.6371 29.886 3.6981L25.515 24.2961C25.331 25.1741 24.949 25.7531 24.378 26.0151C24.163 26.1141 23.933 26.1631 23.687 26.1631Z" fill="#3F7644"/>
<path d="M23.687 26.1631C23.285 26.1631 22.844 26.0311 22.367 25.7681L15.647 20.8091C15.425 20.6451 15.377 20.3311 15.542 20.1101C15.706 19.8881 16.02 19.8401 16.241 20.0051L22.905 24.9281C23.176 25.0731 23.634 25.2571 23.96 25.1061C24.292 24.9541 24.456 24.4691 24.536 24.0891L28.911 3.4721C29.081 2.7911 28.999 2.2431 28.696 1.9911C28.465 1.7991 28.121 1.7851 27.749 1.9531L2.03299 11.8711C1.24399 12.1881 0.995992 12.5141 0.999992 12.6221C1.00299 12.6931 1.17299 12.8891 1.67999 13.0441L8.27399 15.1021C8.43199 15.1511 8.55499 15.2761 8.60399 15.4341L10.871 22.8951C10.932 23.0621 10.979 23.2281 11.02 23.3721C11.052 23.4861 11.092 23.6281 11.119 23.6701C11.115 23.6651 11.195 23.6891 11.408 23.6901C11.855 23.6901 12.025 23.5231 12.365 23.1921L14.025 21.5781C14.223 21.3841 14.539 21.3901 14.732 21.5881C14.924 21.7861 14.92 22.1031 14.722 22.2951L13.09 23.8801C12.688 24.2731 12.262 24.6891 11.408 24.6891C10.428 24.6891 10.23 24.2551 10.057 23.6431C10.022 23.5191 9.98199 23.3761 9.92199 23.2111L7.72399 15.9781L1.38499 13.9991C0.214992 13.6411 0.0149925 13.0091 0.000992454 12.6641C-0.0190075 12.1911 0.253992 11.5071 1.66799 10.9411L27.363 1.0331C28.06 0.715096 28.808 0.783096 29.337 1.2241C29.95 1.7351 30.15 2.6371 29.886 3.6981L25.515 24.2961C25.331 25.1741 24.949 25.7531 24.378 26.0151C24.163 26.1141 23.933 26.1631 23.687 26.1631Z" fill="#3F7644"/>
</svg>
