<svg width="20" height="21" viewBox="0 0 20 21" fill="none" xmlns="http://www.w3.org/2000/svg">
<path d="M10 21C8.61667 21 7.31667 20.7244 6.1 20.1731C4.88333 19.6219 3.825 18.8738 2.925 17.9287C2.025 16.9837 1.3125 15.8725 0.7875 14.595C0.2625 13.3175 0 11.9525 0 10.5C0 9.0475 0.2625 7.6825 0.7875 6.405C1.3125 5.1275 2.025 4.01625 2.925 3.07125C3.825 2.12625 4.88333 1.37812 6.1 0.826875C7.31667 0.275625 8.61667 0 10 0C11.3833 0 12.6833 0.275625 13.9 0.826875C15.1167 1.37812 16.175 2.12625 17.075 3.07125C17.975 4.01625 18.6875 5.1275 19.2125 6.405C19.7375 7.6825 20 9.0475 20 10.5V12.0225C20 13.055 19.6625 13.9344 18.9875 14.6606C18.3125 15.3869 17.4833 15.75 16.5 15.75C15.9167 15.75 15.3667 15.6187 14.85 15.3562C14.3333 15.0937 13.9 14.7175 13.55 14.2275C13.0667 14.735 12.5208 15.1156 11.9125 15.3694C11.3042 15.6231 10.6667 15.75 10 15.75C8.61667 15.75 7.4375 15.2381 6.4625 14.2144C5.4875 13.1906 5 11.9525 5 10.5C5 9.0475 5.4875 7.80937 6.4625 6.78562C7.4375 5.76187 8.61667 5.25 10 5.25C11.3833 5.25 12.5625 5.76187 13.5375 6.78562C14.5125 7.80937 15 9.0475 15 10.5V12.0225C15 12.4775 15.1417 12.8625 15.425 13.1775C15.7083 13.4925 16.0667 13.65 16.5 13.65C16.9333 13.65 17.2917 13.4925 17.575 13.1775C17.8583 12.8625 18 12.4775 18 12.0225V10.5C18 8.155 17.225 6.16875 15.675 4.54125C14.125 2.91375 12.2333 2.1 10 2.1C7.76667 2.1 5.875 2.91375 4.325 4.54125C2.775 6.16875 2 8.155 2 10.5C2 12.845 2.775 14.8312 4.325 16.4587C5.875 18.0863 7.76667 18.9 10 18.9H15V21H10ZM10 13.65C10.8333 13.65 11.5417 13.3437 12.125 12.7312C12.7083 12.1187 13 11.375 13 10.5C13 9.625 12.7083 8.88125 12.125 8.26875C11.5417 7.65625 10.8333 7.35 10 7.35C9.16667 7.35 8.45833 7.65625 7.875 8.26875C7.29167 8.88125 7 9.625 7 10.5C7 11.375 7.29167 12.1187 7.875 12.7312C8.45833 13.3437 9.16667 13.65 10 13.65Z" fill="#3F7644"/>
</svg>
