<svg width="13" height="17" viewBox="0 0 13 17" fill="none" xmlns="http://www.w3.org/2000/svg">
<path d="M6.5 0C4.77669 0.0020087 3.12453 0.706294 1.90596 1.95835C0.687402 3.2104 0.00195497 4.90797 0 6.67864C0 12.3934 5.90909 16.7095 6.16097 16.8901C6.26032 16.9616 6.37869 17 6.5 17C6.62131 17 6.73968 16.9616 6.83903 16.8901C7.09091 16.7095 13 12.3934 13 6.67864C12.998 4.90797 12.3126 3.2104 11.094 1.95835C9.87547 0.706294 8.22331 0.0020087 6.5 0ZM6.5 4.25004C6.96748 4.25004 7.42447 4.39248 7.81317 4.65934C8.20186 4.92619 8.50482 5.30549 8.68371 5.74925C8.86261 6.19302 8.90942 6.68133 8.81822 7.15243C8.72702 7.62354 8.5019 8.05627 8.17134 8.39592C7.84078 8.73556 7.41962 8.96686 6.96112 9.06057C6.50262 9.15428 6.02737 9.10618 5.59548 8.92237C5.16358 8.73855 4.79443 8.42727 4.53471 8.02789C4.27499 7.62851 4.13636 7.15897 4.13636 6.67864C4.13636 6.03453 4.38539 5.41681 4.82866 4.96136C5.27192 4.50591 5.87312 4.25004 6.5 4.25004Z" fill="#3F7644"/>
</svg>
