<svg width="63" height="35" viewBox="0 0 63 35" fill="none" xmlns="http://www.w3.org/2000/svg">
<path d="M30 35V31.3308L33.8752 30.6161V4.71749L30 4.00272V0.309735H43.7703V4.00272L40.017 4.71749V15.1055H43.4778L50.7164 4.9081C52.0975 3.04969 53.3405 1.77105 54.4453 1.07216C55.5502 0.357386 56.8013 0 58.1987 0C59.0436 0 59.7829 0.103245 60.4165 0.309735C61.0665 0.516224 61.6839 0.802133 62.2688 1.16746L61.2939 5.57522C60.904 5.4958 60.5547 5.43227 60.2459 5.38462C59.9535 5.32108 59.6529 5.28931 59.3442 5.28931C58.6292 5.28931 57.9631 5.4958 57.3456 5.90878C56.7282 6.30588 56.0133 7.03653 55.2009 8.10075L48.791 16.7733L59.4417 30.7352L63 31.3308V35H49.9609V31.3308L52.2762 31.0211L52.2031 30.9258L44.3552 20.4187H40.017V30.6161L43.7703 31.3308V35H30Z" fill="white"/>
<path d="M0 35V31.4038L2.547 31.0536L14.1286 1H20.0155L31.453 31.0536L34 31.4038V35H22.8749V31.4038L25.3739 30.9602L23.5237 25.6126H10.5004L8.60212 30.9602L11.1251 31.4038V35H0ZM12.0862 21.1058H21.9618L17.4205 8.51923L17.1081 7.60852H16.964L16.6276 8.56593L12.0862 21.1058Z" fill="white"/>
</svg>
